<?xml version="1.0" encoding="utf-8"?>
<!-- Generated by IcoMoon.io -->
<!DOCTYPE svg PUBLIC "-//W3C//DTD SVG 1.1//EN" "http://www.w3.org/Graphics/SVG/1.1/DTD/svg11.dtd">
<svg version="1.1" xmlns="http://www.w3.org/2000/svg" xmlns:xlink="http://www.w3.org/1999/xlink" width="128" height="128" viewBox="0 0 128 128">
<path fill="#1570a6" d="M75.547 69.89c2.793-3.921 4.453-8.709 4.453-13.891 0-13.258-10.747-24-24-24s-24 10.742-24 24c0 13.254 10.745 24 24 24 5.182 0 9.968-1.661 13.891-4.453l19.281 19.281c1.562 1.562 4.094 1.562 5.656 0s1.562-4.094 0-5.656l-19.281-19.282zM69.738 64.080c-1.383 2.341-3.318 4.276-5.658 5.658-2.378 1.402-5.119 2.262-8.079 2.262-8.837 0-15.999-7.164-15.999-15.999s7.164-15.999 15.999-15.999c8.836 0 15.999 7.164 15.999 15.999 0 2.961-0.859 5.702-2.262 8.079zM64 0c-35.347 0-64 28.652-64 64s28.652 64 64 64 64-28.652 64-64-28.652-64-64-64zM64 117.999c-29.825 0-53.999-24.176-53.999-53.999s24.176-53.999 53.999-53.999 53.999 24.176 53.999 53.999c0 29.825-24.176 53.999-53.999 53.999z"></path>
</svg>
